<svg xml:space="preserve" viewBox="19.396875 5.7 62.25000000000001 90.25" y="0px" x="0px" version="1.1" xmlns:xlink="http://www.w3.org/1999/xlink" xmlns="http://www.w3.org/2000/svg" style="max-height: 500px" width="62.25000000000001" height="90.25"><path d="M74.036,21.991v-3.032c1.75-0.598,3.02-2.24,3.02-4.189v-0.658c0-2.451-1.994-4.445-4.445-4.445H28.179  c-2.451,0-4.445,1.994-4.445,4.445v0.658c0,1.949,1.27,3.591,3.019,4.189v3.033c0,0.966,0.786,1.751,1.751,1.751h0.545l-3.592,6.286  c-1.127,1.973-1.723,4.217-1.723,6.488v48.113c0,3.881,3.157,7.038,7.038,7.038h39.245c3.881,0,7.038-3.157,7.038-7.038V36.516  c0-2.272-0.596-4.516-1.724-6.488l-3.592-6.286h0.545C73.251,23.742,74.036,22.957,74.036,21.991z M28.179,17.214  c-1.348,0-2.445-1.097-2.445-2.445v-0.658c0-1.348,1.097-2.445,2.445-2.445H72.61c1.349,0,2.445,1.097,2.445,2.445v0.658  c0,1.348-1.097,2.445-2.445,2.445H28.179z M73.596,31.02c0.955,1.671,1.46,3.572,1.46,5.496v48.113c0,2.778-2.26,5.038-5.038,5.038  H30.772c-2.778,0-5.038-2.26-5.038-5.038V36.516c0-1.924,0.505-3.825,1.459-5.496l4.159-7.278h38.085L73.596,31.02z M72.036,21.742  h-1.438H30.192h-1.439v-2.528h43.283V21.742z"/><path d="M65.489,87.139H35.301c-3.881,0-7.038-3.157-7.038-7.038V36.522c0.015-2.477,1.278-4.729,3.378-6.031  c2.101-1.301,4.68-1.429,6.899-0.345l3.453,1.69c3.359,1.644,6.7,2.588,9.93,2.808c3.521,0.238,6.92-0.214,10.101-1.346  c0.841-0.299,1.645-0.634,2.388-0.994c2.613-1.267,5.647-0.631,7.215,1.511c0.598,0.819,0.901,1.73,0.901,2.707v43.579  C72.527,83.981,69.37,87.139,65.489,87.139z M35.399,31.416c-0.939,0-1.874,0.26-2.705,0.775c-1.512,0.937-2.421,2.559-2.432,4.337  v43.572c0,2.778,2.26,5.038,5.038,5.038h30.188c2.778,0,5.038-2.26,5.038-5.038V36.522c0-0.552-0.169-1.051-0.517-1.527  c-0.996-1.361-2.983-1.737-4.728-0.892c-0.809,0.392-1.68,0.754-2.59,1.078c-3.439,1.225-7.11,1.713-10.905,1.457  c-3.49-0.237-7.081-1.248-10.674-3.006l-3.453-1.69C36.941,31.591,36.169,31.416,35.399,31.416z"/><path d="M65.771,46.831c-0.823-0.674-1.767-1.118-2.772-1.334l0.103-1.066c0.054-0.55-0.35-1.039-0.898-1.091  c-0.556-0.061-1.039,0.349-1.092,0.899l-0.11,1.134c-0.237,0.021-0.476,0.052-0.716,0.098c-3.574,0.677-5.405,4.39-5.146,6.754  c0.068,0.619,0.182,1.266,0.303,1.946c0.363,2.051,0.774,4.376-0.018,7.117c-0.596,2.06-2.265,4.693-3.483,6.616  c-0.886,1.396-1.356,2.151-1.534,2.694c-0.542,1.66-0.096,3.526,1.136,4.755c0.762,0.76,1.726,1.162,2.717,1.162  c0.394,0,0.79-0.063,1.181-0.192c3.799-1.253,7.643-5.957,9.173-8.628c2.796-4.881,3.963-9.318,3.903-14.837  C68.493,50.438,67.492,48.241,65.771,46.831z M62.881,66.701c-1.759,3.068-5.256,6.797-8.064,7.724  c-0.894,0.295-1.55-0.179-1.858-0.487c-0.576-0.575-1-1.638-0.647-2.718c0.108-0.33,0.726-1.304,1.322-2.245  c1.283-2.024,3.041-4.797,3.716-7.132c0.921-3.187,0.446-5.867,0.064-8.021c-0.112-0.635-0.22-1.238-0.283-1.816  c-0.168-1.522,1.155-4.121,3.53-4.571c0.327-0.062,0.648-0.093,0.963-0.093c1.062,0,2.045,0.351,2.881,1.036  c1.262,1.033,1.996,2.674,2.016,4.501C66.575,58.018,65.487,62.151,62.881,66.701z"/><ellipse ry="1" rx="1" cy="49.4" cx="62.079" transform="matrix(0.862 -0.5069 0.5069 0.862 -16.475 38.289)"/><ellipse ry="1" rx="1" cy="52.115" cx="58.784" transform="matrix(0.862 -0.5069 0.5069 0.862 -18.3059 36.9931)"/><ellipse ry="1" rx="1" cy="52.405" cx="61.789" transform="matrix(0.862 -0.5069 0.5069 0.862 -18.0384 38.5565)"/><ellipse ry="1" rx="1" cy="55.701" cx="64.503" transform="matrix(0.862 -0.5069 0.5069 0.862 -19.3344 40.3874)"/><ellipse ry="1" rx="1" cy="64.425" cx="60.626" transform="matrix(0.862 -0.5069 0.5069 0.862 -24.292 39.6264)"/><ellipse ry="1" rx="1" cy="61.565" cx="62.419" transform="matrix(0.862 -0.5069 0.5069 0.862 -22.5949 40.1406)"/><ellipse ry="1" rx="1" cy="56.913" cx="61.353" transform="matrix(0.862 -0.5069 0.5069 0.862 -20.3835 38.9577)"/><path d="M50.627,48.115c2.053-2.451,2.159-5.29,0.283-7.595c-0.043-0.052-0.091-0.098-0.135-0.149l0.944-1.016  c0.376-0.405,0.353-1.038-0.052-1.413c-0.403-0.375-1.037-0.353-1.413,0.052l-1.041,1.12c-0.806-0.444-1.713-0.699-2.657-0.718  c-1.687-0.045-3.312,0.675-4.437,1.947l-0.242,0.274c-1.793,2.03-3.228,3.935-4.387,5.824c-1.682,2.743-2.72,5.242-3.265,7.866  c-0.236,1.133-0.333,2.281-0.407,3.271l-0.132,1.835c0.039,3.879,0.717,7.627,2.134,11.795c1.649,4.855,3.748,8.017,5.162,9.355  c0.961,0.91,2.132,1.385,3.346,1.385c0.477,0,0.961-0.073,1.441-0.223c1.835-0.569,3.067-2.344,2.93-4.219h0  c-0.027-0.367-0.1-0.712-0.218-1.025c-1.004-2.683-1.523-4.135-2.632-7.76c-1.756-5.738-1.305-11.453,1.237-15.678  C48.204,51.186,50.374,48.422,50.627,48.115z M43.938,69.306c1.125,3.678,1.651,5.152,2.671,7.877  c0.051,0.135,0.083,0.294,0.097,0.47c0.069,0.941-0.588,1.87-1.528,2.162c-1.009,0.312-2.009,0.062-2.82-0.705  c-1.277-1.209-3.208-4.319-4.643-8.545c-1.346-3.962-1.99-7.512-2.03-11.089l0.129-1.751c0.069-0.925,0.16-1.997,0.371-3.012  c0.497-2.391,1.454-4.687,3.012-7.227c1.097-1.79,2.465-3.604,4.182-5.546l0.242-0.274c0.716-0.811,1.74-1.272,2.82-1.272  c0.025,0,0.051,0,0.077,0.001c1.108,0.022,2.144,0.528,2.843,1.387c1.278,1.571,1.186,3.316-0.222,5  c-0.077,0.08-2.489,3.11-3.765,5.23C42.539,56.722,42.016,63.025,43.938,69.306z"/><circle r="1" cy="43.384" cx="48.185"/><circle r="1" cy="43.973" cx="44.412"/><circle r="1" cy="46.992" cx="41.393"/><circle r="1" cy="47.565" cx="46.013"/><circle r="1" cy="49.65" cx="42.393"/><circle r="1" cy="51.651" cx="38.616"/><circle r="1" cy="54.913" cx="38.825"/><circle r="1" cy="58.931" cx="37.374"/><text font-family="'Helvetica Neue', Helvetica, Arial-Unicode, Arial, Sans-serif" font-weight="bold" font-size="5px" fill="#000000" y="115" x="0">Created by Lana Ko</text><text font-family="'Helvetica Neue', Helvetica, Arial-Unicode, Arial, Sans-serif" font-weight="bold" font-size="5px" fill="#000000" y="120" x="0">from the Noun Project</text></svg>